<svg xmlns="http://www.w3.org/2000/svg" xmlns:xlink="http://www.w3.org/1999/xlink" viewBox="0 0 494.97 140.75"><defs><style>.cls-1{fill:url(#linear-gradient);}.cls-2{fill:url(#linear-gradient-2);}.cls-3{fill:url(#linear-gradient-3);}.cls-4{fill:url(#linear-gradient-4);}.cls-5{fill:url(#linear-gradient-5);}.cls-6{fill:url(#linear-gradient-6);}.cls-7{fill:#222b2d;}</style><linearGradient id="linear-gradient" x1="241.03" y1="41.47" x2="263.16" y2="111.31" gradientUnits="userSpaceOnUse"><stop offset="0" stop-color="#3bb4d6"/><stop offset="0" stop-color="#3cb9dc"/><stop offset="1" stop-color="#32879b"/></linearGradient><linearGradient id="linear-gradient-2" x1="197.8" y1="40.49" x2="214.99" y2="124.86" xlink:href="#linear-gradient"/><linearGradient id="linear-gradient-3" x1="215.82" y1="27.82" x2="180.23" y2="97.8" xlink:href="#linear-gradient"/><linearGradient id="linear-gradient-4" x1="217.58" y1="22.72" x2="177.99" y2="73.91" xlink:href="#linear-gradient"/><linearGradient id="linear-gradient-5" x1="262.87" y1="59.93" x2="252.2" y2="113.25" xlink:href="#linear-gradient"/><linearGradient id="linear-gradient-6" x1="264.73" y1="93.04" x2="236.47" y2="119.16" xlink:href="#linear-gradient"/></defs><g id="Layer_2" data-name="Layer 2"><g id="Layer_1-2" data-name="Layer 1"><path class="cls-1" d="M243,2a21,21,0,0,1-3.68,29.81,49.67,49.67,0,0,1-12.82,97.65h0a5.67,5.67,0,0,0,0,11.34h0A70.38,70.38,0,0,0,243,2Z"/><path class="cls-2" d="M214.79,135.08a11.66,11.66,0,0,1,2.05-6.61,49.66,49.66,0,0,1,9.65-98.38,15.05,15.05,0,0,0,14-9.51l1-6.42A15,15,0,0,0,226.49,0a70.38,70.38,0,0,0-10.63,140A11.49,11.49,0,0,1,214.79,135.08Z"/><path class="cls-3" d="M165.07,67.2a61.11,61.11,0,0,0,39.79,57.26,49.66,49.66,0,0,1,21.63-94.37,15.05,15.05,0,0,0,14-9.51l1-6.42a15,15,0,0,0-2-6.57A61.11,61.11,0,0,0,165.07,67.2Z"/><path class="cls-4" d="M226.16,15.81a51.42,51.42,0,0,0-49.29,65.93c0-.66,0-1.32,0-2a49.66,49.66,0,0,1,49.66-49.66,15.05,15.05,0,0,0,14-9.51L240.9,18A51.61,51.61,0,0,0,226.16,15.81Z"/><path class="cls-5" d="M287.49,76.55a62.05,62.05,0,0,0-40.21-58.08,21.06,21.06,0,0,1-8,13.29,49.67,49.67,0,0,1-12.82,97.65h0a5.66,5.66,0,0,0-4.52,9.08c1.15.06,2.32.1,3.49.1A62,62,0,0,0,287.49,76.55Z"/><path class="cls-6" d="M272.52,61.07a49.7,49.7,0,0,1-46,68.34h0a5.67,5.67,0,0,0-5.67,5.67h0c1.53.13,3.07.21,4.64.21a52.05,52.05,0,0,0,47.06-74.23Z"/><path class="cls-7" d="M32.36,43.46q0,2.73,4.32,6.41A111.73,111.73,0,0,0,47.41,57.8Q53.82,62,61.43,67a138.44,138.44,0,0,1,14,10.41A66.83,66.83,0,0,1,86.18,88.79,20.48,20.48,0,0,1,90.5,101,29.61,29.61,0,0,1,89,110.34a23.36,23.36,0,0,1-4.73,8.17,22.61,22.61,0,0,1-8.41,5.76,32.75,32.75,0,0,1-12.57,2.17H0V94.08a238.57,238.57,0,0,0,26.27,7.69c3.31.75,6.54,1.33,9.69,1.76a47.22,47.22,0,0,0,8.41.48,13,13,0,0,0,5.93-1.44,4.43,4.43,0,0,0,2.24-4.16q0-3-3.77-6.41a93.42,93.42,0,0,0-9.37-7.21Q33.79,81,27.23,76.54A101.4,101.4,0,0,1,15.06,67,55.51,55.51,0,0,1,5.69,56,22.82,22.82,0,0,1,1.92,43.46,25.5,25.5,0,0,1,4.57,32a28.61,28.61,0,0,1,7.28-9.29,34.88,34.88,0,0,1,11.06-6.17,42,42,0,0,1,13.93-2.24H84.57V42.82a258.68,258.68,0,0,0-26.11-5.28q-5-.65-9.61-.88a37.43,37.43,0,0,0-8.33.4,15.21,15.21,0,0,0-5.92,2.16A4.84,4.84,0,0,0,32.36,43.46Z"/><path class="cls-7" d="M116.29,40.1a16.29,16.29,0,0,1-10-3q-4.08-3-4.08-7.21t4.08-7.21a17.87,17.87,0,0,1,19.94,0q4.17,3,4.17,7.21t-4.17,7.21A16.33,16.33,0,0,1,116.29,40.1ZM102.2,126.44V44.91h28.19v81.53Z"/><path class="cls-7" d="M399.9,14.31V37.06H369.47v89.38H339V37.06H308.6V14.31Z"/><path class="cls-7" d="M454.37,14.31a57.23,57.23,0,0,1,16,2.16A37.35,37.35,0,0,1,483.25,23a30.68,30.68,0,0,1,8.59,10.73A33.93,33.93,0,0,1,495,48.75q0,9.61-3.54,16.26a33,33,0,0,1-9.07,10.89A35.29,35.29,0,0,1,470,82a51.79,51.79,0,0,1-13.57,1.84h-14.3v42.61H411.68V14.31Zm-.08,46.77a9,9,0,0,0,7.6-3.44,14.16,14.16,0,0,0,2.65-8.89,13.2,13.2,0,0,0-2.65-8.17,8.92,8.92,0,0,0-7.6-3.52H442.11v24Z"/></g></g></svg>